<svg xmlns="http://www.w3.org/2000/svg" height="511pt" version="1.1" viewBox="1 0 511.99901 511" width="511pt">
<g id="surface1">
<path d="M 309.230469 35.695312 L 187.730469 141.890625 L 126.773438 166.21875 C 117.101562 170.082031 111.421875 179.707031 112.09375 189.582031 L 105.941406 192.039062 C 96.3125 195.878906 91.605469 206.839844 95.449219 216.46875 L 106.644531 244.515625 C 108.503906 249.179688 112.074219 252.839844 116.6875 254.824219 C 119.070312 255.847656 121.585938 256.359375 124.101562 256.359375 C 126.460938 256.359375 128.820312 255.910156 131.074219 255.007812 L 137.226562 252.554688 C 141.683594 257.9375 148.359375 261.054688 155.304688 261.054688 C 158.1875 261.054688 161.121094 260.515625 163.957031 259.382812 L 167.640625 257.914062 L 206.683594 321.414062 C 211.527344 329.292969 219.96875 333.640625 228.601562 333.640625 C 233.1875 333.640625 237.824219 332.414062 242.007812 329.84375 L 252.832031 323.1875 C 259.675781 318.980469 261.878906 310.03125 257.742188 303.242188 C 257.726562 303.210938 257.703125 303.175781 257.679688 303.136719 C 253.453125 296.261719 248.273438 294.347656 244.488281 292.949219 C 241.660156 291.90625 240.371094 291.425781 238.851562 288.957031 C 237.335938 286.488281 237.492188 285.121094 237.835938 282.128906 C 238.296875 278.121094 238.925781 272.632812 234.699219 265.761719 C 230.476562 258.886719 225.292969 256.972656 221.507812 255.574219 C 218.683594 254.527344 217.390625 254.050781 215.871094 251.578125 C 214.351562 249.105469 214.507812 247.734375 214.847656 244.738281 C 215.035156 243.097656 215.253906 241.160156 215.136719 238.957031 L 224.914062 235.054688 L 386.144531 228.394531 L 388.179688 233.488281 C 391.507812 241.824219 399.539062 246.910156 408.011719 246.910156 C 410.636719 246.910156 413.304688 246.421875 415.890625 245.390625 L 418.070312 244.519531 C 428.992188 240.160156 434.328125 227.726562 429.972656 216.804688 L 348.992188 13.917969 C 344.628906 2.996094 332.195312 -2.339844 321.277344 2.019531 L 319.097656 2.890625 C 313.804688 5.003906 309.652344 9.046875 307.40625 14.28125 C 305.160156 19.515625 305.082031 25.3125 307.195312 30.601562 Z M 125.535156 241.125 C 124.578125 241.503906 123.53125 241.492188 122.585938 241.085938 C 121.640625 240.679688 120.910156 239.929688 120.53125 238.972656 L 109.335938 210.925781 C 108.546875 208.953125 109.511719 206.710938 111.484375 205.921875 L 116.59375 203.882812 L 130.640625 239.085938 Z M 158.417969 245.5 C 154.082031 247.226562 149.144531 245.109375 147.414062 240.773438 L 147.300781 240.492188 C 147.300781 240.492188 147.300781 240.488281 147.296875 240.484375 L 127.707031 191.398438 C 127.707031 191.394531 127.703125 191.390625 127.703125 191.386719 L 127.589844 191.109375 C 127.15625 190.023438 126.964844 188.902344 126.988281 187.800781 C 127.058594 184.503906 129.0625 181.402344 132.316406 180.105469 L 187.515625 158.070312 L 213.617188 223.464844 Z M 250.46875 307.664062 L 251.359375 307.128906 L 250.398438 307.707031 Z M 216.328125 269.59375 C 219.15625 270.640625 220.445312 271.117188 221.964844 273.589844 C 223.484375 276.058594 223.328125 277.425781 222.984375 280.417969 C 222.523438 284.425781 221.890625 289.914062 226.117188 296.785156 C 230.34375 303.660156 235.523438 305.574219 239.308594 306.972656 C 242 307.96875 243.296875 308.445312 244.726562 310.621094 L 234.179688 317.105469 C 229.136719 320.203125 222.519531 318.625 219.417969 313.585938 L 181.734375 252.289062 L 199.785156 245.085938 C 199.464844 248.84375 199.589844 253.636719 203.136719 259.40625 C 207.363281 266.28125 212.542969 268.195312 216.328125 269.59375 Z M 321.144531 20.179688 C 321.816406 18.617188 323.058594 17.40625 324.640625 16.777344 L 326.820312 15.90625 C 327.59375 15.597656 328.390625 15.449219 329.175781 15.449219 C 331.710938 15.449219 334.109375 16.96875 335.105469 19.460938 L 416.085938 222.347656 C 417.390625 225.613281 415.792969 229.328125 412.53125 230.632812 L 410.347656 231.503906 C 407.082031 232.808594 403.367188 231.210938 402.0625 227.949219 L 321.082031 25.058594 C 320.449219 23.480469 320.472656 21.746094 321.144531 20.179688 Z M 315.105469 50.414062 L 380.269531 213.675781 L 228.3125 219.949219 L 200.589844 150.503906 Z M 315.105469 50.414062 " style=" stroke:none;fill-rule:nonzero;fill:rgb(0%,0%,0%);fill-opacity:1;" />
<path d="M 179.003906 120.273438 C 183.132812 120.273438 186.476562 116.925781 186.476562 112.796875 C 186.476562 108.667969 183.132812 105.324219 179.003906 105.324219 L 36.996094 105.324219 C 30.929688 105.324219 26 110.253906 26 116.316406 L 26 338.535156 C 26 344.597656 30.929688 349.53125 36.996094 349.53125 L 475.003906 349.53125 C 481.070312 349.53125 486 344.597656 486 338.535156 L 486 116.316406 C 486 110.253906 481.070312 105.324219 475.003906 105.324219 L 417.996094 105.324219 C 413.867188 105.324219 410.519531 108.667969 410.519531 112.796875 C 410.519531 116.925781 413.867188 120.273438 417.996094 120.273438 L 471.050781 120.273438 L 471.050781 334.582031 L 40.949219 334.582031 L 40.949219 120.273438 Z M 179.003906 120.273438 " style=" stroke:none;fill-rule:nonzero;fill:rgb(0%,0%,0%);fill-opacity:1;" />
<path d="M 493.679688 79.324219 L 408.003906 79.324219 C 403.875 79.324219 400.53125 82.667969 400.53125 86.796875 C 400.53125 90.925781 403.875 94.273438 408.003906 94.273438 L 493.679688 94.273438 C 495.539062 94.273438 497.050781 95.785156 497.050781 97.644531 L 497.050781 362.578125 L 14.949219 362.578125 L 14.949219 97.644531 C 14.949219 95.785156 16.460938 94.273438 18.320312 94.273438 L 208.625 94.273438 C 212.753906 94.273438 216.101562 90.925781 216.101562 86.800781 C 216.101562 82.671875 212.753906 79.324219 208.625 79.324219 L 18.320312 79.324219 C 8.21875 79.324219 0 87.542969 0 97.644531 L 0 399.070312 C 0 409.167969 8.21875 417.386719 18.320312 417.386719 L 208.085938 417.386719 C 203.253906 440.726562 191.265625 457.277344 180.867188 467.785156 L 150.019531 467.785156 C 138.359375 467.785156 128.871094 477.273438 128.871094 488.933594 L 128.871094 489.644531 C 128.871094 501.304688 138.359375 510.789062 150.019531 510.789062 L 361.980469 510.789062 C 373.640625 510.789062 383.128906 501.304688 383.128906 489.644531 L 383.128906 488.933594 C 383.128906 477.269531 373.640625 467.785156 361.980469 467.785156 L 331.132812 467.785156 C 320.730469 457.273438 308.746094 440.726562 303.914062 417.386719 L 493.679688 417.386719 C 503.78125 417.386719 512 409.167969 512 399.070312 L 512 97.644531 C 512 87.542969 503.78125 79.324219 493.679688 79.324219 Z M 361.980469 482.734375 C 365.398438 482.734375 368.175781 485.515625 368.175781 488.933594 L 368.175781 489.644531 C 368.175781 493.058594 365.398438 495.839844 361.980469 495.839844 L 150.019531 495.839844 C 146.601562 495.839844 143.820312 493.058594 143.820312 489.644531 L 143.820312 488.933594 C 143.820312 485.515625 146.601562 482.734375 150.019531 482.734375 Z M 311.25 467.785156 L 200.75 467.785156 C 210.324219 455.53125 219.457031 438.875 223.3125 417.386719 L 288.6875 417.386719 C 292.542969 438.875 301.675781 455.53125 311.25 467.785156 Z M 497.050781 399.070312 C 497.050781 400.925781 495.539062 402.4375 493.679688 402.4375 L 18.320312 402.4375 C 16.460938 402.4375 14.949219 400.925781 14.949219 399.070312 L 14.949219 377.53125 L 497.050781 377.53125 Z M 497.050781 399.070312 " style=" stroke:none;fill-rule:nonzero;fill:rgb(0%,0%,0%);fill-opacity:1;" />
</g>
</svg>